<mxfile host="app.diagrams.net" modified="2024-04-30T14:22:18.656Z" agent="Mozilla/5.0 (Windows NT 10.0; Win64; x64) AppleWebKit/537.36 (KHTML, like Gecko) Chrome/124.0.0.0 Safari/537.36 Edg/124.0.0.0" etag="id5Yrg8l4KoZDbF3zwu1" version="24.3.1" type="device">
  <diagram name="PÃ¡gina-1" id="xc_PnAHigPK8MTndTYY4">
    <mxGraphModel dx="1386" dy="785" grid="0" gridSize="10" guides="1" tooltips="1" connect="1" arrows="1" fold="1" page="1" pageScale="1" pageWidth="827" pageHeight="1169" math="0" shadow="0">
      <root>
        <mxCell id="0" />
        <mxCell id="1" parent="0" />
        <mxCell id="mXnPNC0psOUxUHvwLewx-1" value="Tabela Usuario" style="swimlane;fontStyle=0;childLayout=stackLayout;horizontal=1;startSize=26;fillColor=none;horizontalStack=0;resizeParent=1;resizeParentMax=0;resizeLast=0;collapsible=1;marginBottom=0;whiteSpace=wrap;html=1;" vertex="1" parent="1">
          <mxGeometry x="22" y="386" width="140" height="156" as="geometry">
            <mxRectangle x="22" y="386" width="115" height="26" as="alternateBounds" />
          </mxGeometry>
        </mxCell>
        <mxCell id="mXnPNC0psOUxUHvwLewx-2" value="Usuario: CharField" style="text;strokeColor=none;fillColor=none;align=left;verticalAlign=top;spacingLeft=4;spacingRight=4;overflow=hidden;rotatable=0;points=[[0,0.5],[1,0.5]];portConstraint=eastwest;whiteSpace=wrap;html=1;" vertex="1" parent="mXnPNC0psOUxUHvwLewx-1">
          <mxGeometry y="26" width="140" height="26" as="geometry" />
        </mxCell>
        <mxCell id="mXnPNC0psOUxUHvwLewx-3" value="Pri_nome: CharField" style="text;strokeColor=none;fillColor=none;align=left;verticalAlign=top;spacingLeft=4;spacingRight=4;overflow=hidden;rotatable=0;points=[[0,0.5],[1,0.5]];portConstraint=eastwest;whiteSpace=wrap;html=1;" vertex="1" parent="mXnPNC0psOUxUHvwLewx-1">
          <mxGeometry y="52" width="140" height="26" as="geometry" />
        </mxCell>
        <mxCell id="mXnPNC0psOUxUHvwLewx-4" value="Ult_nome: CharField" style="text;strokeColor=none;fillColor=none;align=left;verticalAlign=top;spacingLeft=4;spacingRight=4;overflow=hidden;rotatable=0;points=[[0,0.5],[1,0.5]];portConstraint=eastwest;whiteSpace=wrap;html=1;" vertex="1" parent="mXnPNC0psOUxUHvwLewx-1">
          <mxGeometry y="78" width="140" height="26" as="geometry" />
        </mxCell>
        <mxCell id="mXnPNC0psOUxUHvwLewx-5" value="Email: CharField" style="text;strokeColor=none;fillColor=none;align=left;verticalAlign=top;spacingLeft=4;spacingRight=4;overflow=hidden;rotatable=0;points=[[0,0.5],[1,0.5]];portConstraint=eastwest;whiteSpace=wrap;html=1;" vertex="1" parent="mXnPNC0psOUxUHvwLewx-1">
          <mxGeometry y="104" width="140" height="26" as="geometry" />
        </mxCell>
        <mxCell id="mXnPNC0psOUxUHvwLewx-6" value="Senha: CharField" style="text;strokeColor=none;fillColor=none;align=left;verticalAlign=top;spacingLeft=4;spacingRight=4;overflow=hidden;rotatable=0;points=[[0,0.5],[1,0.5]];portConstraint=eastwest;whiteSpace=wrap;html=1;" vertex="1" parent="mXnPNC0psOUxUHvwLewx-1">
          <mxGeometry y="130" width="140" height="26" as="geometry" />
        </mxCell>
        <mxCell id="mXnPNC0psOUxUHvwLewx-7" value="Tabela Dados Pessoais" style="swimlane;fontStyle=0;childLayout=stackLayout;horizontal=1;startSize=26;fillColor=none;horizontalStack=0;resizeParent=1;resizeParentMax=0;resizeLast=0;collapsible=1;marginBottom=0;whiteSpace=wrap;html=1;" vertex="1" parent="1">
          <mxGeometry x="259" y="386" width="165" height="156" as="geometry" />
        </mxCell>
        <mxCell id="mXnPNC0psOUxUHvwLewx-8" value="Nome_completo: CharField" style="text;strokeColor=none;fillColor=none;align=left;verticalAlign=top;spacingLeft=4;spacingRight=4;overflow=hidden;rotatable=0;points=[[0,0.5],[1,0.5]];portConstraint=eastwest;whiteSpace=wrap;html=1;" vertex="1" parent="mXnPNC0psOUxUHvwLewx-7">
          <mxGeometry y="26" width="165" height="26" as="geometry" />
        </mxCell>
        <mxCell id="mXnPNC0psOUxUHvwLewx-9" value="Data_nascimento: DateField" style="text;strokeColor=none;fillColor=none;align=left;verticalAlign=top;spacingLeft=4;spacingRight=4;overflow=hidden;rotatable=0;points=[[0,0.5],[1,0.5]];portConstraint=eastwest;whiteSpace=wrap;html=1;" vertex="1" parent="mXnPNC0psOUxUHvwLewx-7">
          <mxGeometry y="52" width="165" height="26" as="geometry" />
        </mxCell>
        <mxCell id="mXnPNC0psOUxUHvwLewx-10" value="CPF: IntegerField" style="text;strokeColor=none;fillColor=none;align=left;verticalAlign=top;spacingLeft=4;spacingRight=4;overflow=hidden;rotatable=0;points=[[0,0.5],[1,0.5]];portConstraint=eastwest;whiteSpace=wrap;html=1;" vertex="1" parent="mXnPNC0psOUxUHvwLewx-7">
          <mxGeometry y="78" width="165" height="26" as="geometry" />
        </mxCell>
        <mxCell id="mXnPNC0psOUxUHvwLewx-11" value="Endereco: CharField" style="text;strokeColor=none;fillColor=none;align=left;verticalAlign=top;spacingLeft=4;spacingRight=4;overflow=hidden;rotatable=0;points=[[0,0.5],[1,0.5]];portConstraint=eastwest;whiteSpace=wrap;html=1;" vertex="1" parent="mXnPNC0psOUxUHvwLewx-7">
          <mxGeometry y="104" width="165" height="26" as="geometry" />
        </mxCell>
        <mxCell id="mXnPNC0psOUxUHvwLewx-12" value="Usuario: OneToOneField" style="text;strokeColor=none;fillColor=none;align=left;verticalAlign=top;spacingLeft=4;spacingRight=4;overflow=hidden;rotatable=0;points=[[0,0.5],[1,0.5]];portConstraint=eastwest;whiteSpace=wrap;html=1;" vertex="1" parent="mXnPNC0psOUxUHvwLewx-7">
          <mxGeometry y="130" width="165" height="26" as="geometry" />
        </mxCell>
        <mxCell id="mXnPNC0psOUxUHvwLewx-13" value="Tabela Produtos" style="swimlane;fontStyle=0;childLayout=stackLayout;horizontal=1;startSize=26;fillColor=none;horizontalStack=0;resizeParent=1;resizeParentMax=0;resizeLast=0;collapsible=1;marginBottom=0;whiteSpace=wrap;html=1;" vertex="1" parent="1">
          <mxGeometry x="22" y="566" width="157" height="182" as="geometry" />
        </mxCell>
        <mxCell id="mXnPNC0psOUxUHvwLewx-14" value="Nome: CharField" style="text;strokeColor=none;fillColor=none;align=left;verticalAlign=top;spacingLeft=4;spacingRight=4;overflow=hidden;rotatable=0;points=[[0,0.5],[1,0.5]];portConstraint=eastwest;whiteSpace=wrap;html=1;" vertex="1" parent="mXnPNC0psOUxUHvwLewx-13">
          <mxGeometry y="26" width="157" height="26" as="geometry" />
        </mxCell>
        <mxCell id="mXnPNC0psOUxUHvwLewx-15" value="Descricao: TextField" style="text;strokeColor=none;fillColor=none;align=left;verticalAlign=top;spacingLeft=4;spacingRight=4;overflow=hidden;rotatable=0;points=[[0,0.5],[1,0.5]];portConstraint=eastwest;whiteSpace=wrap;html=1;" vertex="1" parent="mXnPNC0psOUxUHvwLewx-13">
          <mxGeometry y="52" width="157" height="26" as="geometry" />
        </mxCell>
        <mxCell id="mXnPNC0psOUxUHvwLewx-16" value="Estoque: IntegerField" style="text;strokeColor=none;fillColor=none;align=left;verticalAlign=top;spacingLeft=4;spacingRight=4;overflow=hidden;rotatable=0;points=[[0,0.5],[1,0.5]];portConstraint=eastwest;whiteSpace=wrap;html=1;" vertex="1" parent="mXnPNC0psOUxUHvwLewx-13">
          <mxGeometry y="78" width="157" height="26" as="geometry" />
        </mxCell>
        <mxCell id="mXnPNC0psOUxUHvwLewx-17" value="Valor: FloatField" style="text;strokeColor=none;fillColor=none;align=left;verticalAlign=top;spacingLeft=4;spacingRight=4;overflow=hidden;rotatable=0;points=[[0,0.5],[1,0.5]];portConstraint=eastwest;whiteSpace=wrap;html=1;" vertex="1" parent="mXnPNC0psOUxUHvwLewx-13">
          <mxGeometry y="104" width="157" height="26" as="geometry" />
        </mxCell>
        <mxCell id="mXnPNC0psOUxUHvwLewx-18" value="Categoria: ForeignKey" style="text;strokeColor=none;fillColor=none;align=left;verticalAlign=top;spacingLeft=4;spacingRight=4;overflow=hidden;rotatable=0;points=[[0,0.5],[1,0.5]];portConstraint=eastwest;whiteSpace=wrap;html=1;" vertex="1" parent="mXnPNC0psOUxUHvwLewx-13">
          <mxGeometry y="130" width="157" height="26" as="geometry" />
        </mxCell>
        <mxCell id="mXnPNC0psOUxUHvwLewx-23" value="SubCategoria: ForeignKey" style="text;strokeColor=none;fillColor=none;align=left;verticalAlign=top;spacingLeft=4;spacingRight=4;overflow=hidden;rotatable=0;points=[[0,0.5],[1,0.5]];portConstraint=eastwest;whiteSpace=wrap;html=1;" vertex="1" parent="mXnPNC0psOUxUHvwLewx-13">
          <mxGeometry y="156" width="157" height="26" as="geometry" />
        </mxCell>
        <mxCell id="mXnPNC0psOUxUHvwLewx-19" value="Tabela Categoria dos Produtos" style="swimlane;fontStyle=0;childLayout=stackLayout;horizontal=1;startSize=26;fillColor=none;horizontalStack=0;resizeParent=1;resizeParentMax=0;resizeLast=0;collapsible=1;marginBottom=0;whiteSpace=wrap;html=1;" vertex="1" parent="1">
          <mxGeometry x="226" y="594" width="201.5" height="52" as="geometry" />
        </mxCell>
        <mxCell id="mXnPNC0psOUxUHvwLewx-20" value="Nome: CharField" style="text;strokeColor=none;fillColor=none;align=left;verticalAlign=top;spacingLeft=4;spacingRight=4;overflow=hidden;rotatable=0;points=[[0,0.5],[1,0.5]];portConstraint=eastwest;whiteSpace=wrap;html=1;" vertex="1" parent="mXnPNC0psOUxUHvwLewx-19">
          <mxGeometry y="26" width="201.5" height="26" as="geometry" />
        </mxCell>
        <mxCell id="mXnPNC0psOUxUHvwLewx-24" value="Tabela SubCategoria dos Produtos" style="swimlane;fontStyle=0;childLayout=stackLayout;horizontal=1;startSize=26;fillColor=none;horizontalStack=0;resizeParent=1;resizeParentMax=0;resizeLast=0;collapsible=1;marginBottom=0;whiteSpace=wrap;html=1;" vertex="1" parent="1">
          <mxGeometry x="226" y="669" width="227.5" height="52" as="geometry" />
        </mxCell>
        <mxCell id="mXnPNC0psOUxUHvwLewx-25" value="Nome: CharField" style="text;strokeColor=none;fillColor=none;align=left;verticalAlign=top;spacingLeft=4;spacingRight=4;overflow=hidden;rotatable=0;points=[[0,0.5],[1,0.5]];portConstraint=eastwest;whiteSpace=wrap;html=1;" vertex="1" parent="mXnPNC0psOUxUHvwLewx-24">
          <mxGeometry y="26" width="227.5" height="26" as="geometry" />
        </mxCell>
        <mxCell id="mXnPNC0psOUxUHvwLewx-26" value="" style="endArrow=classic;html=1;rounded=0;exitX=0;exitY=0.5;exitDx=0;exitDy=0;entryX=1;entryY=0.5;entryDx=0;entryDy=0;" edge="1" parent="1" source="mXnPNC0psOUxUHvwLewx-12" target="mXnPNC0psOUxUHvwLewx-2">
          <mxGeometry width="50" height="50" relative="1" as="geometry">
            <mxPoint x="387" y="793" as="sourcePoint" />
            <mxPoint x="437" y="743" as="targetPoint" />
            <Array as="points">
              <mxPoint x="234" y="529" />
              <mxPoint x="232" y="425" />
            </Array>
          </mxGeometry>
        </mxCell>
        <mxCell id="mXnPNC0psOUxUHvwLewx-27" value="" style="endArrow=classic;html=1;rounded=0;exitX=0;exitY=0.5;exitDx=0;exitDy=0;entryX=0.943;entryY=0.5;entryDx=0;entryDy=0;entryPerimeter=0;" edge="1" parent="1" source="mXnPNC0psOUxUHvwLewx-20" target="mXnPNC0psOUxUHvwLewx-18">
          <mxGeometry width="50" height="50" relative="1" as="geometry">
            <mxPoint x="176" y="626" as="sourcePoint" />
            <mxPoint x="210" y="600" as="targetPoint" />
          </mxGeometry>
        </mxCell>
        <mxCell id="mXnPNC0psOUxUHvwLewx-28" value="" style="endArrow=classic;html=1;rounded=0;exitX=0.013;exitY=0;exitDx=0;exitDy=0;exitPerimeter=0;entryX=0.949;entryY=0.731;entryDx=0;entryDy=0;entryPerimeter=0;" edge="1" parent="1" source="mXnPNC0psOUxUHvwLewx-25" target="mXnPNC0psOUxUHvwLewx-23">
          <mxGeometry width="50" height="50" relative="1" as="geometry">
            <mxPoint x="181" y="762" as="sourcePoint" />
            <mxPoint x="193" y="744" as="targetPoint" />
          </mxGeometry>
        </mxCell>
      </root>
    </mxGraphModel>
  </diagram>
</mxfile>
